<svg xmlns="http://www.w3.org/2000/svg" width="1440" height="900"><path d="M720,449L811,449L720,357Z" fill="#fdfab4" stroke="#fdfab4" stroke-width="1.51"/><path d="M811,449L811,357L720,357Z" fill="#fbf6aa" stroke="#fbf6aa" stroke-width="1.51"/><path d="M811,357L720,266L720,357Z" fill="#fdeda1" stroke="#fdeda1" stroke-width="1.51"/><path d="M811,357L811,266L720,266Z" fill="#fbe798" stroke="#fbe798" stroke-width="1.51"/><path d="M720,357L628,358L720,449Z" fill="#fff4ad" stroke="#fff4ad" stroke-width="1.51"/><path d="M628,266L628,358L720,357Z" fill="#ffe99b" stroke="#ffe99b" stroke-width="1.51"/><path d="M811,449L903,358L811,357Z" fill="#f7f4a4" stroke="#f7f4a4" stroke-width="1.51"/><path d="M811,357L903,266L811,266Z" fill="#f7e591" stroke="#f7e591" stroke-width="1.51"/><path d="M628,358L628,450L720,449Z" fill="#fff5af" stroke="#fff5af" stroke-width="1.51"/><path d="M720,449L812,541L811,449Z" fill="#f8fdb3" stroke="#f8fdb3" stroke-width="1.51"/><path d="M811,449L903,450L903,358Z" fill="#f4f7a7" stroke="#f4f7a7" stroke-width="1.51"/><path d="M812,541L903,450L811,449Z" fill="#f4fbad" stroke="#f4fbad" stroke-width="1.51"/><path d="M720,542L812,541L720,449Z" fill="#f7fcb2" stroke="#f7fcb2" stroke-width="1.51"/><path d="M628,450L720,542L720,449Z" fill="#fcfbb6" stroke="#fcfbb6" stroke-width="1.51"/><path d="M720,266L628,266L720,357Z" fill="#ffe69a" stroke="#ffe69a" stroke-width="1.51"/><path d="M903,358L903,266L811,357Z" fill="#f4ea93" stroke="#f4ea93" stroke-width="1.51"/><path d="M812,541L903,541L903,450Z" fill="#eef8a4" stroke="#eef8a4" stroke-width="1.51"/><path d="M903,633L903,541L812,541Z" fill="#e7f69b" stroke="#e7f69b" stroke-width="1.51"/><path d="M628,450L627,541L720,542Z" fill="#f9f7ac" stroke="#f9f7ac" stroke-width="1.51"/><path d="M536,450L627,541L628,450Z" fill="#fcf3a7" stroke="#fcf3a7" stroke-width="1.51"/><path d="M536,358L628,450L628,358Z" fill="#ffec9f" stroke="#ffec9f" stroke-width="1.51"/><path d="M720,266L720,175L628,266Z" fill="#ffd98f" stroke="#ffd98f" stroke-width="1.51"/><path d="M811,266L720,175L720,266Z" fill="#ffdb90" stroke="#ffdb90" stroke-width="1.51"/><path d="M811,174L720,175L811,266Z" fill="#fdd487" stroke="#fdd487" stroke-width="1.51"/><path d="M903,266L811,174L811,266Z" fill="#f8d886" stroke="#f8d886" stroke-width="1.51"/><path d="M628,266L536,358L628,358Z" fill="#ffe492" stroke="#ffe492" stroke-width="1.51"/><path d="M903,358L995,358L903,266Z" fill="#ece892" stroke="#ece892" stroke-width="1.51"/><path d="M995,449L995,358L903,358Z" fill="#e7eda0" stroke="#e7eda0" stroke-width="1.51"/><path d="M995,449L903,358L903,450Z" fill="#ecf4a6" stroke="#ecf4a6" stroke-width="1.51"/><path d="M995,541L995,449L903,450Z" fill="#e4f4a9" stroke="#e4f4a9" stroke-width="1.51"/><path d="M536,358L536,450L628,450Z" fill="#ffeda1" stroke="#ffeda1" stroke-width="1.51"/><path d="M720,542L812,634L812,541Z" fill="#eef8a5" stroke="#eef8a5" stroke-width="1.51"/><path d="M628,633L719,633L720,542Z" fill="#ebf4a9" stroke="#ebf4a9" stroke-width="1.51"/><path d="M719,633L812,634L720,542Z" fill="#e9f6aa" stroke="#e9f6aa" stroke-width="1.51"/><path d="M903,541L995,541L903,450Z" fill="#e6f5a3" stroke="#e6f5a3" stroke-width="1.51"/><path d="M628,266L536,266L536,358Z" fill="#fedb88" stroke="#fedb88" stroke-width="1.51"/><path d="M720,175L628,174L628,266Z" fill="#ffd086" stroke="#ffd086" stroke-width="1.51"/><path d="M720,82L628,174L720,175Z" fill="#ffc382" stroke="#ffc382" stroke-width="1.51"/><path d="M903,266L903,174L811,174Z" fill="#f6d17e" stroke="#f6d17e" stroke-width="1.51"/><path d="M995,266L903,174L903,266Z" fill="#eed582" stroke="#eed582" stroke-width="1.51"/><path d="M628,174L536,266L628,266Z" fill="#ffd181" stroke="#ffd181" stroke-width="1.51"/><path d="M995,358L995,266L903,266Z" fill="#e8df8e" stroke="#e8df8e" stroke-width="1.51"/><path d="M536,450L536,541L627,541Z" fill="#f8ef9e" stroke="#f8ef9e" stroke-width="1.51"/><path d="M627,541L628,633L720,542Z" fill="#f2f4a3" stroke="#f2f4a3" stroke-width="1.51"/><path d="M903,633L995,541L903,541Z" fill="#dff29a" stroke="#dff29a" stroke-width="1.51"/><path d="M536,633L628,633L627,541Z" fill="#ebec9b" stroke="#ebec9b" stroke-width="1.51"/><path d="M719,633L811,725L812,634Z" fill="#d7efa9" stroke="#d7efa9" stroke-width="1.51"/><path d="M812,634L903,633L812,541Z" fill="#e2f3a0" stroke="#e2f3a0" stroke-width="1.51"/><path d="M536,450L445,449L536,541Z" fill="#fde99b" stroke="#fde99b" stroke-width="1.51"/><path d="M536,358L445,449L536,450Z" fill="#ffe699" stroke="#ffe699" stroke-width="1.51"/><path d="M444,358L445,449L536,358Z" fill="#ffdd8f" stroke="#ffdd8f" stroke-width="1.51"/><path d="M995,449L1087,358L995,358Z" fill="#dde9a3" stroke="#dde9a3" stroke-width="1.51"/><path d="M995,358L1087,358L995,266Z" fill="#dee196" stroke="#dee196" stroke-width="1.51"/><path d="M995,541L1086,450L995,449Z" fill="#daf0ab" stroke="#daf0ab" stroke-width="1.51"/><path d="M628,174L536,174L536,266Z" fill="#ffc878" stroke="#ffc878" stroke-width="1.51"/><path d="M536,266L444,358L536,358Z" fill="#feda85" stroke="#feda85" stroke-width="1.51"/><path d="M811,174L720,82L720,175Z" fill="#ffc483" stroke="#ffc483" stroke-width="1.51"/><path d="M628,174L536,83L536,174Z" fill="#feb870" stroke="#feb870" stroke-width="1.51"/><path d="M812,82L720,82L811,174Z" fill="#fcbc7b" stroke="#fcbc7b" stroke-width="1.51"/><path d="M995,266L995,174L903,174Z" fill="#eacc7e" stroke="#eacc7e" stroke-width="1.51"/><path d="M903,83L812,82L811,174Z" fill="#f8bb75" stroke="#f8bb75" stroke-width="1.51"/><path d="M1087,266L995,174L995,266Z" fill="#e0ce85" stroke="#e0ce85" stroke-width="1.51"/><path d="M903,83L811,174L903,174Z" fill="#f6c275" stroke="#f6c275" stroke-width="1.51"/><path d="M444,266L444,358L536,266Z" fill="#fecf7c" stroke="#fecf7c" stroke-width="1.51"/><path d="M1086,450L1087,358L995,449Z" fill="#d8ebaa" stroke="#d8ebaa" stroke-width="1.51"/><path d="M719,725L811,725L719,633Z" fill="#d2edae" stroke="#d2edae" stroke-width="1.51"/><path d="M536,541L536,633L627,541Z" fill="#f2ed94" stroke="#f2ed94" stroke-width="1.51"/><path d="M444,542L536,633L536,541Z" fill="#f2e58c" stroke="#f2e58c" stroke-width="1.51"/><path d="M995,541L1086,541L1086,450Z" fill="#d1eda7" stroke="#d1eda7" stroke-width="1.51"/><path d="M903,633L995,633L995,541Z" fill="#d3ec9d" stroke="#d3ec9d" stroke-width="1.51"/><path d="M903,725L995,633L903,633Z" fill="#c9e99f" stroke="#c9e99f" stroke-width="1.51"/><path d="M812,634L903,725L903,633Z" fill="#d1eca0" stroke="#d1eca0" stroke-width="1.51"/><path d="M719,725L719,633L628,633Z" fill="#dceeac" stroke="#dceeac" stroke-width="1.51"/><path d="M627,725L719,725L628,633Z" fill="#d5e8a8" stroke="#d5e8a8" stroke-width="1.51"/><path d="M995,174L903,83L903,174Z" fill="#efbf75" stroke="#efbf75" stroke-width="1.51"/><path d="M1178,450L1178,358L1087,358Z" fill="#c9e0a5" stroke="#c9e0a5" stroke-width="1.51"/><path d="M995,633L1086,541L995,541Z" fill="#d0ec9d" stroke="#d0ec9d" stroke-width="1.51"/><path d="M720,82L628,82L628,174Z" fill="#ffb879" stroke="#ffb879" stroke-width="1.51"/><path d="M536,174L444,266L536,266Z" fill="#fec775" stroke="#fec775" stroke-width="1.51"/><path d="M1087,358L1087,266L995,266Z" fill="#dad991" stroke="#dad991" stroke-width="1.51"/><path d="M811,725L903,725L812,634Z" fill="#cceaa4" stroke="#cceaa4" stroke-width="1.51"/><path d="M445,449L444,542L536,541Z" fill="#f9e392" stroke="#f9e392" stroke-width="1.51"/><path d="M352,450L444,542L445,449Z" fill="#fedb90" stroke="#fedb90" stroke-width="1.51"/><path d="M536,633L627,725L628,633Z" fill="#dde69e" stroke="#dde69e" stroke-width="1.51"/><path d="M536,725L627,725L536,633Z" fill="#d5e09b" stroke="#d5e09b" stroke-width="1.51"/><path d="M536,174L444,174L444,266Z" fill="#febc6c" stroke="#febc6c" stroke-width="1.51"/><path d="M628,82L536,83L628,174Z" fill="#feb370" stroke="#feb370" stroke-width="1.51"/><path d="M995,633L1086,633L1086,541Z" fill="#c3e6a0" stroke="#c3e6a0" stroke-width="1.51"/><path d="M1178,450L1087,358L1086,450Z" fill="#cee7ab" stroke="#cee7ab" stroke-width="1.51"/><path d="M995,725L1086,633L995,633Z" fill="#b9e2a2" stroke="#b9e2a2" stroke-width="1.51"/><path d="M995,174L995,82L903,83Z" fill="#eab571" stroke="#eab571" stroke-width="1.51"/><path d="M812,-9L720,82L812,82Z" fill="#f7b07a" stroke="#f7b07a" stroke-width="1.51"/><path d="M1087,83L995,82L995,174Z" fill="#e1b173" stroke="#e1b173" stroke-width="1.51"/><path d="M536,83L444,174L536,174Z" fill="#fdb068" stroke="#fdb068" stroke-width="1.51"/><path d="M1087,266L1087,174L995,174Z" fill="#dcc681" stroke="#dcc681" stroke-width="1.51"/><path d="M444,542L444,633L536,633Z" fill="#ecdd8b" stroke="#ecdd8b" stroke-width="1.51"/><path d="M444,633L536,725L536,633Z" fill="#dedc92" stroke="#dedc92" stroke-width="1.51"/><path d="M903,725L995,725L995,633Z" fill="#bce3a1" stroke="#bce3a1" stroke-width="1.51"/><path d="M720,82L719,-9L628,82Z" fill="#fbae7d" stroke="#fbae7d" stroke-width="1.51"/><path d="M628,82L627,-10L536,83Z" fill="#f9a66f" stroke="#f9a66f" stroke-width="1.51"/><path d="M812,-9L719,-9L720,82Z" fill="#f5ab7f" stroke="#f5ab7f" stroke-width="1.51"/><path d="M812,-9L812,82L903,-9Z" fill="#efaa76" stroke="#efaa76" stroke-width="1.51"/><path d="M903,-9L812,82L903,83Z" fill="#f0ae71" stroke="#f0ae71" stroke-width="1.51"/><path d="M1178,450L1086,450L1086,541Z" fill="#cbe9ad" stroke="#cbe9ad" stroke-width="1.51"/><path d="M1087,358L1178,358L1087,266Z" fill="#cfda97" stroke="#cfda97" stroke-width="1.51"/><path d="M1087,266L1178,174L1087,174Z" fill="#d3c282" stroke="#d3c282" stroke-width="1.51"/><path d="M444,358L352,450L445,449Z" fill="#ffd98e" stroke="#ffd98e" stroke-width="1.51"/><path d="M444,542L353,633L444,633Z" fill="#edd583" stroke="#edd583" stroke-width="1.51"/><path d="M444,266L353,357L444,358Z" fill="#fecc7a" stroke="#fecc7a" stroke-width="1.51"/><path d="M352,266L353,357L444,266Z" fill="#fec271" stroke="#fec271" stroke-width="1.51"/><path d="M1178,541L1178,450L1086,541Z" fill="#c2e6a8" stroke="#c2e6a8" stroke-width="1.51"/><path d="M719,725L719,816L811,725Z" fill="#c3e6af" stroke="#c3e6af" stroke-width="1.51"/><path d="M811,725L812,817L903,725Z" fill="#bde3a5" stroke="#bde3a5" stroke-width="1.51"/><path d="M903,725L995,816L995,725Z" fill="#addca1" stroke="#addca1" stroke-width="1.51"/><path d="M627,725L719,816L719,725Z" fill="#c5e4ae" stroke="#c5e4ae" stroke-width="1.51"/><path d="M628,817L719,816L627,725Z" fill="#bedea9" stroke="#bedea9" stroke-width="1.51"/><path d="M353,357L352,450L444,358Z" fill="#ffd084" stroke="#ffd084" stroke-width="1.51"/><path d="M719,816L812,817L811,725Z" fill="#b9e2ab" stroke="#b9e2ab" stroke-width="1.51"/><path d="M995,82L903,-9L903,83Z" fill="#e9ab70" stroke="#e9ab70" stroke-width="1.51"/><path d="M1086,633L1178,541L1086,541Z" fill="#c1e59e" stroke="#c1e59e" stroke-width="1.51"/><path d="M1179,633L1178,541L1086,633Z" fill="#b4dfa1" stroke="#b4dfa1" stroke-width="1.51"/><path d="M353,174L352,266L444,266Z" fill="#feb566" stroke="#feb566" stroke-width="1.51"/><path d="M353,357L261,357L352,450Z" fill="#ffc67d" stroke="#ffc67d" stroke-width="1.51"/><path d="M719,-9L627,-10L628,82Z" fill="#f6a779" stroke="#f6a779" stroke-width="1.51"/><path d="M536,83L444,83L444,174Z" fill="#fca460" stroke="#fca460" stroke-width="1.51"/><path d="M444,174L353,174L444,266Z" fill="#feb365" stroke="#feb365" stroke-width="1.51"/><path d="M719,-101L627,-10L719,-9Z" fill="#ed9f80" stroke="#ed9f80" stroke-width="1.51"/><path d="M811,-101L719,-9L812,-9Z" fill="#eaa17d" stroke="#eaa17d" stroke-width="1.51"/><path d="M1270,358L1179,266L1178,358Z" fill="#c0d498" stroke="#c0d498" stroke-width="1.51"/><path d="M1178,358L1179,266L1087,266Z" fill="#ccd292" stroke="#ccd292" stroke-width="1.51"/><path d="M1270,358L1178,358L1178,450Z" fill="#bfdba5" stroke="#bfdba5" stroke-width="1.51"/><path d="M352,450L352,541L444,542Z" fill="#fad687" stroke="#fad687" stroke-width="1.51"/><path d="M719,816L719,909L812,817Z" fill="#b1d5b4" stroke="#b1d5b4" stroke-width="1.51"/><path d="M536,725L628,817L627,725Z" fill="#c7dca0" stroke="#c7dca0" stroke-width="1.51"/><path d="M812,817L903,817L903,725Z" fill="#b2dea2" stroke="#b2dea2" stroke-width="1.51"/><path d="M445,-10L444,83L536,83Z" fill="#f69860" stroke="#f69860" stroke-width="1.51"/><path d="M995,82L995,-9L903,-9Z" fill="#e1a472" stroke="#e1a472" stroke-width="1.51"/><path d="M1087,174L1087,83L995,174Z" fill="#ddb779" stroke="#ddb779" stroke-width="1.51"/><path d="M1178,174L1087,83L1087,174Z" fill="#d4b37a" stroke="#d4b37a" stroke-width="1.51"/><path d="M995,725L1087,724L1086,633Z" fill="#acdda4" stroke="#acdda4" stroke-width="1.51"/><path d="M995,816L1087,724L995,725Z" fill="#a1d8a3" stroke="#a1d8a3" stroke-width="1.51"/><path d="M536,725L535,817L628,817Z" fill="#bfd69c" stroke="#bfd69c" stroke-width="1.51"/><path d="M444,633L444,725L536,725Z" fill="#d7d58f" stroke="#d7d58f" stroke-width="1.51"/><path d="M353,633L444,725L444,633Z" fill="#dfcf87" stroke="#dfcf87" stroke-width="1.51"/><path d="M903,-101L811,-101L812,-9Z" fill="#df9a75" stroke="#df9a75" stroke-width="1.51"/><path d="M1086,-9L995,-9L995,82Z" fill="#d8a174" stroke="#d8a174" stroke-width="1.51"/><path d="M444,83L353,174L444,174Z" fill="#fca25d" stroke="#fca25d" stroke-width="1.51"/><path d="M1179,266L1178,174L1087,266Z" fill="#cec687" stroke="#cec687" stroke-width="1.51"/><path d="M352,541L353,633L444,542Z" fill="#f4d37e" stroke="#f4d37e" stroke-width="1.51"/><path d="M444,83L352,82L353,174Z" fill="#fa9656" stroke="#fa9656" stroke-width="1.51"/><path d="M627,-10L536,-10L536,83Z" fill="#f49f6d" stroke="#f49f6d" stroke-width="1.51"/><path d="M903,817L995,816L903,725Z" fill="#aadba0" stroke="#aadba0" stroke-width="1.51"/><path d="M1087,724L1179,633L1086,633Z" fill="#a9dba3" stroke="#a9dba3" stroke-width="1.51"/><path d="M1270,450L1270,358L1178,450Z" fill="#b9ddac" stroke="#b9ddac" stroke-width="1.51"/><path d="M1178,724L1179,633L1087,724Z" fill="#9bd6a5" stroke="#9bd6a5" stroke-width="1.51"/><path d="M444,816L535,817L536,725Z" fill="#c1ce94" stroke="#c1ce94" stroke-width="1.51"/><path d="M903,-101L812,-9L903,-9Z" fill="#e39f74" stroke="#e39f74" stroke-width="1.51"/><path d="M627,-10L536,-101L536,-10Z" fill="#eb946f" stroke="#eb946f" stroke-width="1.51"/><path d="M811,-101L719,-101L719,-9Z" fill="#e59c7e" stroke="#e59c7e" stroke-width="1.51"/><path d="M1270,450L1178,450L1178,541Z" fill="#bae2ad" stroke="#bae2ad" stroke-width="1.51"/><path d="M1179,266L1270,174L1178,174Z" fill="#c5bb83" stroke="#c5bb83" stroke-width="1.51"/><path d="M261,266L261,357L352,266Z" fill="#fdb269" stroke="#fdb269" stroke-width="1.51"/><path d="M352,266L261,357L353,357Z" fill="#febd71" stroke="#febd71" stroke-width="1.51"/><path d="M352,450L261,450L352,541Z" fill="#fecc86" stroke="#fecc86" stroke-width="1.51"/><path d="M352,541L260,542L353,633Z" fill="#f4c977" stroke="#f4c977" stroke-width="1.51"/><path d="M261,357L261,450L352,450Z" fill="#ffc581" stroke="#ffc581" stroke-width="1.51"/><path d="M1270,542L1270,450L1178,541Z" fill="#b2dea8" stroke="#b2dea8" stroke-width="1.51"/><path d="M628,817L719,909L719,816Z" fill="#b3d3b3" stroke="#b3d3b3" stroke-width="1.51"/><path d="M812,817L903,908L903,817Z" fill="#a9d1a7" stroke="#a9d1a7" stroke-width="1.51"/><path d="M903,817L995,908L995,816Z" fill="#9bcda6" stroke="#9bcda6" stroke-width="1.51"/><path d="M627,908L719,909L628,817Z" fill="#b0c9b1" stroke="#b0c9b1" stroke-width="1.51"/><path d="M719,909L812,909L812,817Z" fill="#abccb4" stroke="#abccb4" stroke-width="1.51"/><path d="M1179,82L1086,-9L1087,83Z" fill="#cfa074" stroke="#cfa074" stroke-width="1.51"/><path d="M1087,83L1086,-9L995,82Z" fill="#d8a474" stroke="#d8a474" stroke-width="1.51"/><path d="M995,-9L903,-101L903,-9Z" fill="#dc9c73" stroke="#dc9c73" stroke-width="1.51"/><path d="M995,-101L903,-101L995,-9Z" fill="#d19572" stroke="#d19572" stroke-width="1.51"/><path d="M1179,633L1270,542L1178,541Z" fill="#b1dd9f" stroke="#b1dd9f" stroke-width="1.51"/><path d="M1087,817L1178,724L1087,724Z" fill="#90d1a5" stroke="#90d1a5" stroke-width="1.51"/><path d="M1087,817L1087,724L995,816Z" fill="#93d3a4" stroke="#93d3a4" stroke-width="1.51"/><path d="M261,174L352,266L353,174Z" fill="#fca45b" stroke="#fca45b" stroke-width="1.51"/><path d="M261,174L261,266L352,266Z" fill="#fca55e" stroke="#fca55e" stroke-width="1.51"/><path d="M536,-10L445,-10L536,83Z" fill="#f39765" stroke="#f39765" stroke-width="1.51"/><path d="M536,-101L445,-10L536,-10Z" fill="#ea8d67" stroke="#ea8d67" stroke-width="1.51"/><path d="M261,725L353,725L353,633Z" fill="#d9be7e" stroke="#d9be7e" stroke-width="1.51"/><path d="M353,633L353,725L444,725Z" fill="#d9c884" stroke="#d9c884" stroke-width="1.51"/><path d="M444,725L444,816L536,725Z" fill="#c9ce90" stroke="#c9ce90" stroke-width="1.51"/><path d="M1271,634L1270,542L1179,633Z" fill="#a3d8a1" stroke="#a3d8a1" stroke-width="1.51"/><path d="M535,817L627,908L628,817Z" fill="#b5cba5" stroke="#b5cba5" stroke-width="1.51"/><path d="M353,725L444,816L444,725Z" fill="#cbc588" stroke="#cbc588" stroke-width="1.51"/><path d="M719,-101L628,-102L627,-10Z" fill="#e69779" stroke="#e69779" stroke-width="1.51"/><path d="M811,-101L628,-102L719,-101Z" fill="#e09780" stroke="#e09780" stroke-width="1.51"/><path d="M903,-101L628,-102L811,-101Z" fill="#db967a" stroke="#db967a" stroke-width="1.51"/><path d="M812,909L903,908L812,817Z" fill="#a7caae" stroke="#a7caae" stroke-width="1.51"/><path d="M445,-10L352,82L444,83Z" fill="#f58e59" stroke="#f58e59" stroke-width="1.51"/><path d="M1270,174L1179,82L1178,174Z" fill="#c6ac7a" stroke="#c6ac7a" stroke-width="1.51"/><path d="M1178,174L1179,82L1087,83Z" fill="#cfa976" stroke="#cfa976" stroke-width="1.51"/><path d="M536,909L627,908L535,817Z" fill="#b2c1a4" stroke="#b2c1a4" stroke-width="1.51"/><path d="M1270,358L1271,266L1179,266Z" fill="#bccb93" stroke="#bccb93" stroke-width="1.51"/><path d="M1362,357L1271,266L1270,358Z" fill="#b6c69d" stroke="#b6c69d" stroke-width="1.51"/><path d="M1362,357L1270,358L1362,450Z" fill="#b2c9ac" stroke="#b2c9ac" stroke-width="1.51"/><path d="M995,908L1087,817L995,816Z" fill="#8fc9a8" stroke="#8fc9a8" stroke-width="1.51"/><path d="M261,450L260,542L352,541Z" fill="#fbc67e" stroke="#fbc67e" stroke-width="1.51"/><path d="M169,541L260,542L261,450Z" fill="#fabc78" stroke="#fabc78" stroke-width="1.51"/><path d="M169,358L261,450L261,357Z" fill="#ffb675" stroke="#ffb675" stroke-width="1.51"/><path d="M445,-10L352,-10L352,82Z" fill="#f18457" stroke="#f18457" stroke-width="1.51"/><path d="M628,-102L536,-101L627,-10Z" fill="#e49271" stroke="#e49271" stroke-width="1.51"/><path d="M903,-101L995,-101L628,-102Z" fill="#d79574" stroke="#d79574" stroke-width="1.51"/><path d="M1086,-9L995,-101L995,-9Z" fill="#cf9776" stroke="#cf9776" stroke-width="1.51"/><path d="M1086,-101L995,-101L1086,-9Z" fill="#c49075" stroke="#c49075" stroke-width="1.51"/><path d="M352,82L261,174L353,174Z" fill="#fa9354" stroke="#fa9354" stroke-width="1.51"/><path d="M169,266L169,358L261,357Z" fill="#fca865" stroke="#fca865" stroke-width="1.51"/><path d="M1271,266L1270,174L1179,266Z" fill="#bfbf88" stroke="#bfbf88" stroke-width="1.51"/><path d="M903,908L995,908L903,817Z" fill="#9dc7a9" stroke="#9dc7a9" stroke-width="1.51"/><path d="M903,1000L995,908L903,908Z" fill="#98b7ad" stroke="#98b7ad" stroke-width="1.51"/><path d="M353,725L353,816L444,816Z" fill="#c4be85" stroke="#c4be85" stroke-width="1.51"/><path d="M260,542L260,633L353,633Z" fill="#edc177" stroke="#edc177" stroke-width="1.51"/><path d="M444,909L536,909L535,817Z" fill="#b4b99d" stroke="#b4b99d" stroke-width="1.51"/><path d="M628,1001L720,1000L719,909Z" fill="#adb4b7" stroke="#adb4b7" stroke-width="1.51"/><path d="M444,909L535,817L444,816Z" fill="#b8be95" stroke="#b8be95" stroke-width="1.51"/><path d="M1362,450L1270,358L1270,450Z" fill="#b4d2b1" stroke="#b4d2b1" stroke-width="1.51"/><path d="M1270,725L1271,634L1179,633Z" fill="#92d2a4" stroke="#92d2a4" stroke-width="1.51"/><path d="M1270,725L1179,633L1178,724Z" fill="#90d1a5" stroke="#90d1a5" stroke-width="1.51"/><path d="M261,725L353,816L353,725Z" fill="#ccb87f" stroke="#ccb87f" stroke-width="1.51"/><path d="M1179,82L1178,-10L1086,-9Z" fill="#c79976" stroke="#c79976" stroke-width="1.51"/><path d="M1270,-10L1178,-10L1179,82Z" fill="#be9476" stroke="#be9476" stroke-width="1.51"/><path d="M444,-101L352,-10L445,-10Z" fill="#e87e5d" stroke="#e87e5d" stroke-width="1.51"/><path d="M352,82L260,82L261,174Z" fill="#f8854d" stroke="#f8854d" stroke-width="1.51"/><path d="M1087,817L1178,817L1178,724Z" fill="#81cca5" stroke="#81cca5" stroke-width="1.51"/><path d="M1087,909L1178,817L1087,817Z" fill="#7cc1a9" stroke="#7cc1a9" stroke-width="1.51"/><path d="M995,-101L1086,-101L628,-102Z" fill="#d2936f" stroke="#d2936f" stroke-width="1.51"/><path d="M1178,-10L1086,-101L1086,-9Z" fill="#c29177" stroke="#c29177" stroke-width="1.51"/><path d="M536,-101L444,-101L445,-10Z" fill="#e28362" stroke="#e28362" stroke-width="1.51"/><path d="M628,-102L444,-101L536,-101Z" fill="#dc8667" stroke="#dc8667" stroke-width="1.51"/><path d="M1362,174L1270,82L1270,174Z" fill="#bc9f80" stroke="#bc9f80" stroke-width="1.51"/><path d="M1270,174L1270,82L1179,82Z" fill="#c2a376" stroke="#c2a376" stroke-width="1.51"/><path d="M169,266L261,266L261,174Z" fill="#fb9a59" stroke="#fb9a59" stroke-width="1.51"/><path d="M169,266L261,357L261,266Z" fill="#fca763" stroke="#fca763" stroke-width="1.51"/><path d="M260,542L169,633L260,633Z" fill="#edb771" stroke="#edb771" stroke-width="1.51"/><path d="M169,358L169,449L261,450Z" fill="#ffb578" stroke="#ffb578" stroke-width="1.51"/><path d="M1362,450L1270,450L1362,541Z" fill="#aecfb5" stroke="#aecfb5" stroke-width="1.51"/><path d="M1271,266L1362,174L1270,174Z" fill="#bbae88" stroke="#bbae88" stroke-width="1.51"/><path d="M1362,541L1270,450L1270,542Z" fill="#add3ae" stroke="#add3ae" stroke-width="1.51"/><path d="M260,633L261,725L353,633Z" fill="#e0bc7a" stroke="#e0bc7a" stroke-width="1.51"/><path d="M169,724L261,725L260,633Z" fill="#daaf75" stroke="#daaf75" stroke-width="1.51"/><path d="M1178,817L1270,725L1178,724Z" fill="#7ecaa5" stroke="#7ecaa5" stroke-width="1.51"/><path d="M1362,633L1362,541L1270,542Z" fill="#a5cba7" stroke="#a5cba7" stroke-width="1.51"/><path d="M628,1001L719,909L627,908Z" fill="#abb9b5" stroke="#abb9b5" stroke-width="1.51"/><path d="M719,909L720,1000L812,909Z" fill="#a8bdbb" stroke="#a8bdbb" stroke-width="1.51"/><path d="M812,909L903,1000L903,908Z" fill="#a0baae" stroke="#a0baae" stroke-width="1.51"/><path d="M352,-10L260,82L352,82Z" fill="#f37e50" stroke="#f37e50" stroke-width="1.51"/><path d="M536,1000L628,1001L627,908Z" fill="#afaca9" stroke="#afaca9" stroke-width="1.51"/><path d="M353,816L444,909L444,816Z" fill="#bbb68d" stroke="#bbb68d" stroke-width="1.51"/><path d="M352,909L444,909L353,816Z" fill="#b7a98e" stroke="#b7a98e" stroke-width="1.51"/><path d="M995,908L1087,909L1087,817Z" fill="#85beac" stroke="#85beac" stroke-width="1.51"/><path d="M1178,817L1270,817L1270,725Z" fill="#6ec5a5" stroke="#6ec5a5" stroke-width="1.51"/><path d="M995,1000L1087,909L995,908Z" fill="#86b1af" stroke="#86b1af" stroke-width="1.51"/><path d="M720,1000L812,1001L812,909Z" fill="#a9b5b5" stroke="#a9b5b5" stroke-width="1.51"/><path d="M169,174L169,266L261,174Z" fill="#f98e51" stroke="#f98e51" stroke-width="1.51"/><path d="M1362,357L1362,266L1271,266Z" fill="#b5bb9a" stroke="#b5bb9a" stroke-width="1.51"/><path d="M169,449L169,541L261,450Z" fill="#fdb87a" stroke="#fdb87a" stroke-width="1.51"/><path d="M1362,633L1270,542L1271,634Z" fill="#9ecda6" stroke="#9ecda6" stroke-width="1.51"/><path d="M812,1001L903,1000L812,909Z" fill="#a6b3ae" stroke="#a6b3ae" stroke-width="1.51"/><path d="M720,1000L811,1092L812,1001Z" fill="#aea6ae" stroke="#aea6ae" stroke-width="1.51"/><path d="M536,1000L627,908L536,909Z" fill="#adb2a8" stroke="#adb2a8" stroke-width="1.51"/><path d="M260,82L169,174L261,174Z" fill="#f8824c" stroke="#f8824c" stroke-width="1.51"/><path d="M1362,266L1362,174L1271,266Z" fill="#b8af8f" stroke="#b8af8f" stroke-width="1.51"/><path d="M261,725L260,817L353,816Z" fill="#c6af7c" stroke="#c6af7c" stroke-width="1.51"/><path d="M169,541L169,633L260,542Z" fill="#f3b46c" stroke="#f3b46c" stroke-width="1.51"/><path d="M1362,725L1271,634L1270,725Z" fill="#84c5a9" stroke="#84c5a9" stroke-width="1.51"/><path d="M1362,725L1362,633L1271,634Z" fill="#8bc2ab" stroke="#8bc2ab" stroke-width="1.51"/><path d="M445,1000L536,1000L536,909Z" fill="#b1a29d" stroke="#b1a29d" stroke-width="1.51"/><path d="M903,1092L995,1000L903,1000Z" fill="#a1a0a4" stroke="#a1a0a4" stroke-width="1.51"/><path d="M903,1000L995,1000L995,908Z" fill="#96adab" stroke="#96adab" stroke-width="1.51"/><path d="M1270,-10L1178,-101L1178,-10Z" fill="#b48b78" stroke="#b48b78" stroke-width="1.51"/><path d="M1178,-10L1178,-101L1086,-101Z" fill="#b78a75" stroke="#b78a75" stroke-width="1.51"/><path d="M1086,-101L1453,-102L628,-102Z" fill="#bc8a73" stroke="#bc8a73" stroke-width="1.51"/><path d="M1270,-10L1179,82L1270,82Z" fill="#bd9875" stroke="#bd9875" stroke-width="1.51"/><path d="M352,-10L260,-10L260,82Z" fill="#ee734f" stroke="#ee734f" stroke-width="1.51"/><path d="M260,82L169,82L169,174Z" fill="#f57445" stroke="#f57445" stroke-width="1.51"/><path d="M444,-101L352,-101L352,-10Z" fill="#e07458" stroke="#e07458" stroke-width="1.51"/><path d="M261,-102L352,-101L444,-101Z" fill="#d86a53" stroke="#d86a53" stroke-width="1.51"/><path d="M1362,-9L1270,-10L1270,82Z" fill="#b4887b" stroke="#b4887b" stroke-width="1.51"/><path d="M1179,908L1178,817L1087,909Z" fill="#72b8ad" stroke="#72b8ad" stroke-width="1.51"/><path d="M1179,908L1270,817L1178,817Z" fill="#68baaa" stroke="#68baaa" stroke-width="1.51"/><path d="M1087,1000L1179,908L1087,909Z" fill="#73abb0" stroke="#73abb0" stroke-width="1.51"/><path d="M352,-101L260,-10L352,-10Z" fill="#e66e54" stroke="#e66e54" stroke-width="1.51"/><path d="M169,724L260,817L261,725Z" fill="#cda876" stroke="#cda876" stroke-width="1.51"/><path d="M444,909L445,1000L536,909Z" fill="#b0a69d" stroke="#b0a69d" stroke-width="1.51"/><path d="M260,817L352,909L353,816Z" fill="#bca784" stroke="#bca784" stroke-width="1.51"/><path d="M260,-10L169,82L260,82Z" fill="#f06c48" stroke="#f06c48" stroke-width="1.51"/><path d="M169,633L169,724L260,633Z" fill="#e0ac71" stroke="#e0ac71" stroke-width="1.51"/><path d="M1362,174L1362,82L1270,82Z" fill="#ba927e" stroke="#ba927e" stroke-width="1.51"/><path d="M353,1001L445,1000L444,909Z" fill="#b39592" stroke="#b39592" stroke-width="1.51"/><path d="M719,1092L720,1000L628,1001Z" fill="#b2a4b1" stroke="#b2a4b1" stroke-width="1.51"/><path d="M1270,817L1362,725L1270,725Z" fill="#72beaa" stroke="#72beaa" stroke-width="1.51"/><path d="M995,1000L1087,1000L1087,909Z" fill="#84a8ad" stroke="#84a8ad" stroke-width="1.51"/><path d="M995,1092L1087,1000L995,1000Z" fill="#919ba6" stroke="#919ba6" stroke-width="1.51"/><path d="M169,266L77,358L169,358Z" fill="#f7a168" stroke="#f7a168" stroke-width="1.51"/><path d="M169,358L77,358L169,449Z" fill="#f9a974" stroke="#f9a974" stroke-width="1.51"/><path d="M169,449L77,450L169,541Z" fill="#f8b17c" stroke="#f8b17c" stroke-width="1.51"/><path d="M169,541L77,541L169,633Z" fill="#efae6e" stroke="#efae6e" stroke-width="1.51"/><path d="M169,633L77,633L169,724Z" fill="#dba573" stroke="#dba573" stroke-width="1.51"/><path d="M77,266L77,358L169,266Z" fill="#f49764" stroke="#f49764" stroke-width="1.51"/><path d="M77,266L169,266L169,174Z" fill="#f58d58" stroke="#f58d58" stroke-width="1.51"/><path d="M1362,357L1453,266L1362,266Z" fill="#b0b09f" stroke="#b0b09f" stroke-width="1.51"/><path d="M1362,266L1453,266L1362,174Z" fill="#b3a494" stroke="#b3a494" stroke-width="1.51"/><path d="M1362,174L1454,83L1362,82Z" fill="#b58882" stroke="#b58882" stroke-width="1.51"/><path d="M1362,450L1454,358L1362,357Z" fill="#adbeb1" stroke="#adbeb1" stroke-width="1.51"/><path d="M1454,449L1454,358L1362,450Z" fill="#aabcb9" stroke="#aabcb9" stroke-width="1.51"/><path d="M1454,449L1362,450L1454,541Z" fill="#a6bfbb" stroke="#a6bfbb" stroke-width="1.51"/><path d="M1362,450L1362,541L1454,541Z" fill="#a5c3b5" stroke="#a5c3b5" stroke-width="1.51"/><path d="M1454,541L1362,541L1453,633Z" fill="#9ebbad" stroke="#9ebbad" stroke-width="1.51"/><path d="M77,358L77,450L169,449Z" fill="#f7aa7b" stroke="#f7aa7b" stroke-width="1.51"/><path d="M812,1001L903,1092L903,1000Z" fill="#a9a3a5" stroke="#a9a3a5" stroke-width="1.51"/><path d="M719,1092L811,1092L720,1000Z" fill="#b1a2b0" stroke="#b1a2b0" stroke-width="1.51"/><path d="M719,1092L628,1001L628,1092Z" fill="#b49eab" stroke="#b49eab" stroke-width="1.51"/><path d="M628,1092L628,1001L536,1092Z" fill="#b498a2" stroke="#b498a2" stroke-width="1.51"/><path d="M1454,358L1453,266L1362,357Z" fill="#adb0a6" stroke="#adb0a6" stroke-width="1.51"/><path d="M77,174L77,266L169,174Z" fill="#f18354" stroke="#f18354" stroke-width="1.51"/><path d="M77,450L77,541L169,541Z" fill="#f2ac78" stroke="#f2ac78" stroke-width="1.51"/><path d="M1453,633L1362,541L1362,633Z" fill="#97bdad" stroke="#97bdad" stroke-width="1.51"/><path d="M536,1092L628,1001L536,1000Z" fill="#b39a9f" stroke="#b39a9f" stroke-width="1.51"/><path d="M811,1092L903,1092L812,1001Z" fill="#aca0a7" stroke="#aca0a7" stroke-width="1.51"/><path d="M1270,-10L1270,-101L1178,-101Z" fill="#a98475" stroke="#a98475" stroke-width="1.51"/><path d="M1178,-101L1453,-102L1086,-101Z" fill="#a27f74" stroke="#a27f74" stroke-width="1.51"/><path d="M1362,-101L1270,-101L1270,-10Z" fill="#a4797a" stroke="#a4797a" stroke-width="1.51"/><path d="M352,-101L261,-102L260,-10Z" fill="#de634f" stroke="#de634f" stroke-width="1.51"/><path d="M260,-10L168,-10L169,82Z" fill="#eb6047" stroke="#eb6047" stroke-width="1.51"/><path d="M628,-102L261,-102L444,-101Z" fill="#da785d" stroke="#da785d" stroke-width="1.51"/><path d="M1270,817L1362,817L1362,725Z" fill="#65b5ac" stroke="#65b5ac" stroke-width="1.51"/><path d="M1179,908L1270,908L1270,817Z" fill="#5db1ad" stroke="#5db1ad" stroke-width="1.51"/><path d="M1270,1000L1270,908L1179,908Z" fill="#57a2b0" stroke="#57a2b0" stroke-width="1.51"/><path d="M445,1000L536,1092L536,1000Z" fill="#b49398" stroke="#b49398" stroke-width="1.51"/><path d="M352,909L353,1001L444,909Z" fill="#b29992" stroke="#b29992" stroke-width="1.51"/><path d="M260,817L260,908L352,909Z" fill="#b99a85" stroke="#b99a85" stroke-width="1.51"/><path d="M168,817L260,908L260,817Z" fill="#bc987b" stroke="#bc987b" stroke-width="1.51"/><path d="M168,817L260,817L169,724Z" fill="#c6a073" stroke="#c6a073" stroke-width="1.51"/><path d="M1454,83L1362,-9L1362,82Z" fill="#b07c81" stroke="#b07c81" stroke-width="1.51"/><path d="M1362,82L1362,-9L1270,82Z" fill="#b5877c" stroke="#b5877c" stroke-width="1.51"/><path d="M1362,725L1453,633L1362,633Z" fill="#85b8af" stroke="#85b8af" stroke-width="1.51"/><path d="M1454,725L1453,633L1362,725Z" fill="#7ab0b1" stroke="#7ab0b1" stroke-width="1.51"/><path d="M169,82L77,174L169,174Z" fill="#f2754c" stroke="#f2754c" stroke-width="1.51"/><path d="M77,82L77,174L169,82Z" fill="#ed6849" stroke="#ed6849" stroke-width="1.51"/><path d="M1453,266L1454,174L1362,174Z" fill="#b29890" stroke="#b29890" stroke-width="1.51"/><path d="M1546,266L1454,174L1453,266Z" fill="#b39492" stroke="#b39492" stroke-width="1.51"/><path d="M77,541L77,633L169,633Z" fill="#e5a771" stroke="#e5a771" stroke-width="1.51"/><path d="M1270,908L1362,817L1270,817Z" fill="#5aaeae" stroke="#5aaeae" stroke-width="1.51"/><path d="M444,1092L536,1092L445,1000Z" fill="#b58a92" stroke="#b58a92" stroke-width="1.51"/><path d="M1087,1000L1179,1001L1179,908Z" fill="#72a1ad" stroke="#72a1ad" stroke-width="1.51"/><path d="M903,1092L995,1092L995,1000Z" fill="#9d9aa3" stroke="#9d9aa3" stroke-width="1.51"/><path d="M169,-101L168,-10L260,-10Z" fill="#e25549" stroke="#e25549" stroke-width="1.51"/><path d="M261,1000L353,1001L352,909Z" fill="#b48789" stroke="#b48789" stroke-width="1.51"/><path d="M77,724L168,817L169,724Z" fill="#c89c75" stroke="#c89c75" stroke-width="1.51"/><path d="M260,908L261,1000L352,909Z" fill="#b38b89" stroke="#b38b89" stroke-width="1.51"/><path d="M1087,1092L1179,1001L1087,1000Z" fill="#8095a7" stroke="#8095a7" stroke-width="1.51"/><path d="M1270,908L1362,908L1362,817Z" fill="#51a2b3" stroke="#51a2b3" stroke-width="1.51"/><path d="M1454,174L1454,83L1362,174Z" fill="#b38988" stroke="#b38988" stroke-width="1.51"/><path d="M77,-9L77,82L169,82Z" fill="#e75a49" stroke="#e75a49" stroke-width="1.51"/><path d="M77,633L77,724L169,724Z" fill="#d29f75" stroke="#d29f75" stroke-width="1.51"/><path d="M1545,449L1454,449L1454,541Z" fill="#aab5b6" stroke="#aab5b6" stroke-width="1.51"/><path d="M1362,817L1454,725L1362,725Z" fill="#69aeb0" stroke="#69aeb0" stroke-width="1.51"/><path d="M1454,817L1454,725L1362,817Z" fill="#5ca6b1" stroke="#5ca6b1" stroke-width="1.51"/><path d="M353,1092L444,1092L353,1001Z" fill="#b67e87" stroke="#b67e87" stroke-width="1.51"/><path d="M353,1001L444,1092L445,1000Z" fill="#b6868d" stroke="#b6868d" stroke-width="1.51"/><path d="M995,1092L1087,1092L1087,1000Z" fill="#8d95a5" stroke="#8d95a5" stroke-width="1.51"/><path d="M1454,358L1545,358L1453,266Z" fill="#b0a7a2" stroke="#b0a7a2" stroke-width="1.51"/><path d="M1454,174L1545,174L1454,83Z" fill="#b47f84" stroke="#b47f84" stroke-width="1.51"/><path d="M1454,449L1545,358L1454,358Z" fill="#afaeae" stroke="#afaeae" stroke-width="1.51"/><path d="M1545,449L1545,358L1454,449Z" fill="#b0adb2" stroke="#b0adb2" stroke-width="1.51"/><path d="M1545,449L1454,541L1546,541Z" fill="#a9aeaf" stroke="#a9aeaf" stroke-width="1.51"/><path d="M77,266L-14,357L77,358Z" fill="#ef966b" stroke="#ef966b" stroke-width="1.51"/><path d="M77,358L-14,449L77,450Z" fill="#f2a37d" stroke="#f2a37d" stroke-width="1.51"/><path d="M77,450L-15,541L77,541Z" fill="#eda57b" stroke="#eda57b" stroke-width="1.51"/><path d="M77,541L-15,541L77,633Z" fill="#e6a372" stroke="#e6a372" stroke-width="1.51"/><path d="M77,633L-15,633L77,724Z" fill="#d39b76" stroke="#d39b76" stroke-width="1.51"/><path d="M-15,266L-14,357L77,266Z" fill="#eb8c67" stroke="#eb8c67" stroke-width="1.51"/><path d="M-15,266L77,266L77,174Z" fill="#ed825c" stroke="#ed825c" stroke-width="1.51"/><path d="M-14,357L-14,449L77,358Z" fill="#ee9b78" stroke="#ee9b78" stroke-width="1.51"/><path d="M1546,541L1454,541L1545,633Z" fill="#a4aca7" stroke="#a4aca7" stroke-width="1.51"/><path d="M261,-102L169,-101L260,-10Z" fill="#dc564a" stroke="#dc564a" stroke-width="1.51"/><path d="M168,-10L77,-9L169,82Z" fill="#e6584a" stroke="#e6584a" stroke-width="1.51"/><path d="M1362,-9L1362,-101L1270,-10Z" fill="#a8797e" stroke="#a8797e" stroke-width="1.51"/><path d="M1270,-101L1453,-102L1178,-101Z" fill="#9d7478" stroke="#9d7478" stroke-width="1.51"/><path d="M1454,-10L1362,-101L1362,-9Z" fill="#a26e82" stroke="#a26e82" stroke-width="1.51"/><path d="M1270,1000L1179,908L1179,1001Z" fill="#659dad" stroke="#659dad" stroke-width="1.51"/><path d="M1270,1000L1362,908L1270,908Z" fill="#4d98b4" stroke="#4d98b4" stroke-width="1.51"/><path d="M168,908L260,908L168,817Z" fill="#b98c7c" stroke="#b98c7c" stroke-width="1.51"/><path d="M169,1000L261,1000L260,908Z" fill="#b47880" stroke="#b47880" stroke-width="1.51"/><path d="M1271,1092L1270,1000L1179,1001Z" fill="#688ca7" stroke="#688ca7" stroke-width="1.51"/><path d="M77,817L168,908L168,817Z" fill="#b88d7a" stroke="#b88d7a" stroke-width="1.51"/><path d="M-107,357L-106,450L-14,449Z" fill="#e0947a" stroke="#e0947a" stroke-width="1.51"/><path d="M-15,174L-15,266L77,174Z" fill="#e97858" stroke="#e97858" stroke-width="1.51"/><path d="M1454,83L1454,-10L1362,-9Z" fill="#a97283" stroke="#a97283" stroke-width="1.51"/><path d="M1545,358L1546,266L1453,266Z" fill="#b29b9a" stroke="#b29b9a" stroke-width="1.51"/><path d="M1637,358L1546,266L1545,358Z" fill="#b4979b" stroke="#b4979b" stroke-width="1.51"/><path d="M-14,449L-15,541L77,450Z" fill="#eda380" stroke="#eda380" stroke-width="1.51"/><path d="M77,724L77,817L168,817Z" fill="#be9676" stroke="#be9676" stroke-width="1.51"/><path d="M-106,450L-15,541L-14,449Z" fill="#e39b7d" stroke="#e39b7d" stroke-width="1.51"/><path d="M1545,633L1454,541L1453,633Z" fill="#9aaeaa" stroke="#9aaeaa" stroke-width="1.51"/><path d="M1545,449L1637,358L1545,358Z" fill="#b39ea8" stroke="#b39ea8" stroke-width="1.51"/><path d="M-15,83L-15,174L77,174Z" fill="#e66650" stroke="#e66650" stroke-width="1.51"/><path d="M77,-101L77,-9L168,-10Z" fill="#da484c" stroke="#da484c" stroke-width="1.51"/><path d="M1546,-9L1454,-10L1454,83Z" fill="#aa677f" stroke="#aa677f" stroke-width="1.51"/><path d="M261,1000L353,1092L353,1001Z" fill="#b67883" stroke="#b67883" stroke-width="1.51"/><path d="M260,1092L353,1092L261,1000Z" fill="#b66e7e" stroke="#b66e7e" stroke-width="1.51"/><path d="M-14,725L77,817L77,724Z" fill="#c09278" stroke="#c09278" stroke-width="1.51"/><path d="M1453,908L1362,817L1362,908Z" fill="#4798b7" stroke="#4798b7" stroke-width="1.51"/><path d="M1453,908L1454,817L1362,817Z" fill="#4b9ab5" stroke="#4b9ab5" stroke-width="1.51"/><path d="M1545,724L1545,633L1453,633Z" fill="#8ca3aa" stroke="#8ca3aa" stroke-width="1.51"/><path d="M1087,1092L1179,1092L1179,1001Z" fill="#7c8fa5" stroke="#7c8fa5" stroke-width="1.51"/><path d="M1270,1000L1362,1000L1362,908Z" fill="#508cb3" stroke="#508cb3" stroke-width="1.51"/><path d="M1546,266L1545,174L1454,174Z" fill="#b5888a" stroke="#b5888a" stroke-width="1.51"/><path d="M1545,724L1453,633L1454,725Z" fill="#81a6ad" stroke="#81a6ad" stroke-width="1.51"/><path d="M-15,83L77,174L77,82Z" fill="#e8604c" stroke="#e8604c" stroke-width="1.51"/><path d="M-15,541L-15,633L77,633Z" fill="#dd9d74" stroke="#dd9d74" stroke-width="1.51"/><path d="M1637,450L1545,449L1546,541Z" fill="#afa5af" stroke="#afa5af" stroke-width="1.51"/><path d="M1546,817L1545,724L1454,725Z" fill="#729aab" stroke="#729aab" stroke-width="1.51"/><path d="M-15,633L-14,725L77,724Z" fill="#ca9578" stroke="#ca9578" stroke-width="1.51"/><path d="M-15,-9L-15,83L77,82Z" fill="#df4e4c" stroke="#df4e4c" stroke-width="1.51"/><path d="M1637,174L1546,83L1545,174Z" fill="#b56e7e" stroke="#b56e7e" stroke-width="1.51"/><path d="M1545,174L1546,83L1454,83Z" fill="#b4717e" stroke="#b4717e" stroke-width="1.51"/><path d="M77,909L168,908L77,817Z" fill="#b1817e" stroke="#b1817e" stroke-width="1.51"/><path d="M77,909L169,1000L168,908Z" fill="#ae7581" stroke="#ae7581" stroke-width="1.51"/><path d="M168,908L169,1000L260,908Z" fill="#b37c80" stroke="#b37c80" stroke-width="1.51"/><path d="M1454,817L1546,817L1454,725Z" fill="#659cad" stroke="#659cad" stroke-width="1.51"/><path d="M1271,1092L1362,1000L1270,1000Z" fill="#6083ab" stroke="#6083ab" stroke-width="1.51"/><path d="M1454,-10L1453,-102L1362,-101Z" fill="#996381" stroke="#996381" stroke-width="1.51"/><path d="M1362,-101L1453,-102L1270,-101Z" fill="#97697c" stroke="#97697c" stroke-width="1.51"/><path d="M1546,-101L1453,-102L1454,-10Z" fill="#9a587d" stroke="#9a587d" stroke-width="1.51"/><path d="M1362,1000L1453,908L1362,908Z" fill="#3c89ba" stroke="#3c89ba" stroke-width="1.51"/><path d="M77,-9L-15,-9L77,82Z" fill="#de4c4d" stroke="#de4c4d" stroke-width="1.51"/><path d="M169,-101L77,-101L168,-10Z" fill="#d54749" stroke="#d54749" stroke-width="1.51"/><path d="M261,-102L77,-101L169,-101Z" fill="#d14647" stroke="#d14647" stroke-width="1.51"/><path d="M-14,908L77,909L77,817Z" fill="#ab7b80" stroke="#ab7b80" stroke-width="1.51"/><path d="M169,1000L260,1092L261,1000Z" fill="#b5677a" stroke="#b5677a" stroke-width="1.51"/><path d="M169,1092L260,1092L169,1000Z" fill="#b55d76" stroke="#b55d76" stroke-width="1.51"/><path d="M1179,1092L1271,1092L1179,1001Z" fill="#708ba5" stroke="#708ba5" stroke-width="1.51"/><path d="M1637,450L1546,541L1637,541Z" fill="#aea1aa" stroke="#aea1aa" stroke-width="1.51"/><path d="M1637,450L1637,358L1545,449Z" fill="#b39fac" stroke="#b39fac" stroke-width="1.51"/><path d="M1546,266L1637,174L1545,174Z" fill="#b67d86" stroke="#b67d86" stroke-width="1.51"/><path d="M-15,633L-107,724L-14,725Z" fill="#c08e75" stroke="#c08e75" stroke-width="1.51"/><path d="M-15,541L-106,541L-15,633Z" fill="#d99870" stroke="#d99870" stroke-width="1.51"/><path d="M-107,357L-14,449L-14,357Z" fill="#e49475" stroke="#e49475" stroke-width="1.51"/><path d="M-107,357L-14,357L-15,266Z" fill="#e28b69" stroke="#e28b69" stroke-width="1.51"/><path d="M-107,357L-15,266L-106,266Z" fill="#dd8263" stroke="#dd8263" stroke-width="1.51"/><path d="M1637,541L1546,541L1545,633Z" fill="#a7a2a2" stroke="#a7a2a2" stroke-width="1.51"/><path d="M-106,266L-15,266L-15,174Z" fill="#e0775a" stroke="#e0775a" stroke-width="1.51"/><path d="M-107,174L-106,266L-15,174Z" fill="#db6d54" stroke="#db6d54" stroke-width="1.51"/><path d="M1637,358L1637,266L1546,266Z" fill="#b58d95" stroke="#b58d95" stroke-width="1.51"/><path d="M-106,450L-106,541L-15,541Z" fill="#db9777" stroke="#db9777" stroke-width="1.51"/><path d="M-14,725L-15,817L77,817Z" fill="#b68c78" stroke="#b68c78" stroke-width="1.51"/><path d="M-107,633L-106,541L-106,450Z" fill="#d39271" stroke="#d39271" stroke-width="1.51"/><path d="M1638,633L1637,541L1545,633Z" fill="#a09ca2" stroke="#a09ca2" stroke-width="1.51"/><path d="M1638,633L1545,633L1545,724Z" fill="#9099a5" stroke="#9099a5" stroke-width="1.51"/><path d="M-15,83L-107,174L-15,174Z" fill="#dc5e4e" stroke="#dc5e4e" stroke-width="1.51"/><path d="M77,-101L-15,-9L77,-9Z" fill="#d43f4e" stroke="#d43f4e" stroke-width="1.51"/><path d="M1638,82L1546,-9L1546,83Z" fill="#af5978" stroke="#af5978" stroke-width="1.51"/><path d="M1546,83L1546,-9L1454,83Z" fill="#af667c" stroke="#af667c" stroke-width="1.51"/><path d="M-107,724L-15,817L-14,725Z" fill="#b38875" stroke="#b38875" stroke-width="1.51"/><path d="M1454,1001L1453,908L1362,1000Z" fill="#417db7" stroke="#417db7" stroke-width="1.51"/><path d="M1546,908L1454,817L1453,908Z" fill="#4f89b4" stroke="#4f89b4" stroke-width="1.51"/><path d="M1546,908L1546,817L1454,817Z" fill="#598bae" stroke="#598bae" stroke-width="1.51"/><path d="M1637,266L1637,174L1546,266Z" fill="#b6818a" stroke="#b6818a" stroke-width="1.51"/><path d="M-107,83L-107,174L-15,83Z" fill="#d65149" stroke="#d65149" stroke-width="1.51"/><path d="M-106,266L-107,174L-107,357Z" fill="#d7775d" stroke="#d7775d" stroke-width="1.51"/><path d="M-106,541L-107,633L-15,633Z" fill="#ce9270" stroke="#ce9270" stroke-width="1.51"/><path d="M-107,357L-107,633L-106,450Z" fill="#d9947a" stroke="#d9947a" stroke-width="1.51"/><path d="M1638,725L1638,633L1545,724Z" fill="#8994a5" stroke="#8994a5" stroke-width="1.51"/><path d="M1637,541L1638,633L1637,450Z" fill="#ab9fa5" stroke="#ab9fa5" stroke-width="1.51"/><path d="M1637,450L1638,633L1637,358Z" fill="#b0a2ae" stroke="#b0a2ae" stroke-width="1.51"/><path d="M1637,358L1638,82L1637,266Z" fill="#b6818a" stroke="#b6818a" stroke-width="1.51"/><path d="M1637,266L1638,82L1637,174Z" fill="#b67281" stroke="#b67281" stroke-width="1.51"/><path d="M-15,1000L77,1000L77,909Z" fill="#a66280" stroke="#a66280" stroke-width="1.51"/><path d="M77,909L77,1000L169,1000Z" fill="#ab697f" stroke="#ab697f" stroke-width="1.51"/><path d="M77,1000L169,1092L169,1000Z" fill="#af5b78" stroke="#af5b78" stroke-width="1.51"/><path d="M1271,1092L1362,1092L1362,1000Z" fill="#5e7aaa" stroke="#5e7aaa" stroke-width="1.51"/><path d="M1362,1092L1454,1001L1362,1000Z" fill="#5274b0" stroke="#5274b0" stroke-width="1.51"/><path d="M-106,909L-14,908L-15,817Z" fill="#9f707d" stroke="#9f707d" stroke-width="1.51"/><path d="M-15,817L-14,908L77,817Z" fill="#ac7f7d" stroke="#ac7f7d" stroke-width="1.51"/><path d="M-106,-9L-107,83L-15,83Z" fill="#d04249" stroke="#d04249" stroke-width="1.51"/><path d="M77,-101L-15,-101L-15,-9Z" fill="#ca354d" stroke="#ca354d" stroke-width="1.51"/><path d="M-106,-102L-15,-101L77,-101Z" fill="#be2a4a" stroke="#be2a4a" stroke-width="1.51"/><path d="M1637,-10L1546,-101L1546,-9Z" fill="#a14a79" stroke="#a14a79" stroke-width="1.51"/><path d="M1546,-9L1546,-101L1454,-10Z" fill="#a1577d" stroke="#a1577d" stroke-width="1.51"/><path d="M-106,-9L-15,83L-15,-9Z" fill="#d03f4b" stroke="#d03f4b" stroke-width="1.51"/><path d="M1454,1001L1546,908L1453,908Z" fill="#447bb6" stroke="#447bb6" stroke-width="1.51"/><path d="M1546,817L1638,725L1545,724Z" fill="#7890a6" stroke="#7890a6" stroke-width="1.51"/><path d="M-107,633L-107,724L-15,633Z" fill="#c28d73" stroke="#c28d73" stroke-width="1.51"/><path d="M1637,174L1638,82L1546,83Z" fill="#b56278" stroke="#b56278" stroke-width="1.51"/><path d="M1638,633L1638,82L1637,358Z" fill="#b597a0" stroke="#b597a0" stroke-width="1.51"/><path d="M1637,817L1638,725L1546,817Z" fill="#708ba5" stroke="#708ba5" stroke-width="1.51"/><path d="M-15,-101L-106,-9L-15,-9Z" fill="#c7324c" stroke="#c7324c" stroke-width="1.51"/><path d="M1638,82L1637,-10L1546,-9Z" fill="#ab5177" stroke="#ab5177" stroke-width="1.51"/><path d="M1638,908L1637,817L1546,908Z" fill="#5c78ab" stroke="#5c78ab" stroke-width="1.51"/><path d="M1546,908L1637,817L1546,817Z" fill="#6181aa" stroke="#6181aa" stroke-width="1.51"/><path d="M-107,724L-107,817L-15,817Z" fill="#a88174" stroke="#a88174" stroke-width="1.51"/><path d="M-15,1000L77,1092L77,1000Z" fill="#a6507a" stroke="#a6507a" stroke-width="1.51"/><path d="M77,1000L77,1092L169,1092Z" fill="#ac5377" stroke="#ac5377" stroke-width="1.51"/><path d="M-15,1000L77,909L-14,908Z" fill="#a26883" stroke="#a26883" stroke-width="1.51"/><path d="M1454,1001L1545,1001L1546,908Z" fill="#4e6fb0" stroke="#4e6fb0" stroke-width="1.51"/><path d="M1362,1092L1454,1092L1454,1001Z" fill="#516baf" stroke="#516baf" stroke-width="1.51"/><path d="M1454,1092L1545,1001L1454,1001Z" fill="#5465ac" stroke="#5465ac" stroke-width="1.51"/><path d="M-106,909L-15,1000L-14,908Z" fill="#986180" stroke="#986180" stroke-width="1.51"/><path d="M-15,-101L-106,-102L-106,-9Z" fill="#bb2849" stroke="#bb2849" stroke-width="1.51"/><path d="M-106,-9L-106,-102L-107,83Z" fill="#c3314a" stroke="#c3314a" stroke-width="1.51"/><path d="M261,-102L-106,-102L77,-101Z" fill="#c8384a" stroke="#c8384a" stroke-width="1.51"/><path d="M-107,817L-106,909L-15,817Z" fill="#9e7579" stroke="#9e7579" stroke-width="1.51"/><path d="M1546,-101L1638,-102L1453,-102Z" fill="#934777" stroke="#934777" stroke-width="1.51"/><path d="M1637,-10L1638,-102L1546,-101Z" fill="#9a4275" stroke="#9a4275" stroke-width="1.51"/><path d="M1638,82L1638,-102L1637,-10Z" fill="#a74b78" stroke="#a74b78" stroke-width="1.51"/><path d="M1637,1000L1638,908L1546,908Z" fill="#526aae" stroke="#526aae" stroke-width="1.51"/><path d="M1637,817L1638,908L1638,725Z" fill="#6887a6" stroke="#6887a6" stroke-width="1.51"/><path d="M-106,1092L-15,1092L-15,1000Z" fill="#994175" stroke="#994175" stroke-width="1.51"/><path d="M-15,1000L-15,1092L77,1092Z" fill="#a34879" stroke="#a34879" stroke-width="1.51"/><path d="M1545,1001L1637,1000L1546,908Z" fill="#5565ab" stroke="#5565ab" stroke-width="1.51"/><path d="M1454,1092L1546,1092L1545,1001Z" fill="#595ca8" stroke="#595ca8" stroke-width="1.51"/><path d="M1546,1092L1637,1000L1545,1001Z" fill="#5c56a5" stroke="#5c56a5" stroke-width="1.51"/><path d="M-106,909L-107,1000L-15,1000Z" fill="#94557c" stroke="#94557c" stroke-width="1.51"/><path d="M-107,817L-107,1000L-106,909Z" fill="#91627d" stroke="#91627d" stroke-width="1.51"/><path d="M-107,1000L-106,1092L-15,1000Z" fill="#954376" stroke="#954376" stroke-width="1.51"/><path d="M1546,1092L1637,1092L1637,1000Z" fill="#5e4fa2" stroke="#5e4fa2" stroke-width="1.51"/><path d="M1637,1000L1637,1092L1638,908Z" fill="#5a5ba7" stroke="#5a5ba7" stroke-width="1.51"/></svg>